<?xml version="1.0" encoding="UTF-8" standalone="no"?>
<!DOCTYPE svg PUBLIC "-//W3C//DTD SVG 20010904//EN" "http://www.w3.org/TR/2001/REC-SVG-20010904/DTD/svg10.dtd">
<svg version="1.0" xmlns="http://www.w3.org/2000/svg" width="1754.516783pt" height="1759.199213pt" viewBox="0 0 1754.516783 1759.199213" preserveAspectRatio="xMidYMid meet">

<g transform="translate(-119.374464,1884.841515) scale(0.100000,-0.100000)" fill="#000000" stroke="none">
<path d="M9610 18839 c-52 -5 -183 -15 -290 -24 -107 -9 -224 -20 -260 -25 -36 -5 -90 -12 -120 -15 -30 -4 -80 -10 -110 -15 -30 -6 -100 -16 -155 -25 -55 -8 -122 -19 -150 -25 -27 -5 -84 -16 -125 -25 -333 -65 -499 -106 -815 -199 -479 -142 -730 -239 -1298 -505 -510 -238 -942 -501 -1483 -902 -145 -108 -373 -290 -424 -340 -8 -8 -69 -61 -135 -119 -151 -131 -602 -582 -760 -760 -357 -401 -619 -740 -892 -1150 -79 -119 -223 -355 -223 -365 0 -3 -20 -37 -44 -77 -82 -136 -308 -574 -373 -723 -12 -27 -45 -102 -74 -165 -105 -234 -187 -454 -277 -745 -50 -160 -108 -357 -121 -410 -5 -22 -18 -76 -29 -120 -52 -202 -103 -439 -122 -565 -30 -192 -49 -323 -54 -375 -4 -33 -11 -91 -16 -130 -27 -198 -50 -488 -65 -820 -5 -122 7 -537 25 -790 14 -207 47 -500 75 -670 57 -339 84 -478 111 -586 8 -35 19 -82 24 -104 29 -137 159 -591 209 -731 101 -285 218 -551 422 -958 128 -255 137 -270 329 -601 287 -496 626 -953 1114 -1505 149 -168 617 -637 791 -791 529 -470 1185 -925 1852 -1285 380 -205 813 -396 1118 -494 859 -275 1459 -394 2170 -432 421 -22 947 -13 1280 23 329 35 386 42 610 79 207 35 551 114 760 175 262 77 337 100 445 138 191 68 239 88 450 182 373 167 680 313 815 390 22 12 65 36 95 52 255 138 541 320 871 554 544 386 1138 903 1589 1384 329 350 708 829 981 1241 113 170 236 378 399 674 61 111 270 537 337 690 14 30 31 69 38 85 54 121 65 146 65 151 0 3 6 20 14 37 148 340 334 971 416 1412 11 61 24 133 29 160 6 28 13 70 16 95 3 25 10 74 15 110 11 74 34 267 50 415 28 271 38 789 20 1116 -31 595 -99 1069 -226 1584 -25 99 -49 191 -53 205 -5 14 -17 54 -26 90 -32 115 -157 502 -219 676 -17 47 -81 204 -101 249 -7 17 -38 89 -68 160 -128 301 -253 557 -382 780 -32 55 -67 116 -78 135 -389 697 -895 1357 -1522 1986 -320 320 -645 600 -1045 899 -218 162 -600 414 -780 512 -30 17 -122 67 -205 113 -305 169 -719 361 -1015 473 -326 123 -829 274 -1145 342 -60 13 -144 31 -185 40 -41 9 -102 20 -135 25 -33 5 -114 18 -180 29 -326 54 -606 86 -975 111 -177 12 -639 11 -780 -1z m795 -299 c200 -9 348 -22 480 -40 39 -5 122 -16 185 -25 138 -19 287 -42 355 -55 371 -73 376 -74 621 -136 590 -150 1228 -405 1804 -722 270 -148 605 -351 790 -477 131 -90 413 -300 535 -400 61 -49 143 -117 184 -149 328 -267 739 -679 1052 -1056 338 -409 745 -1005 962 -1410 279 -524 371 -716 527 -1105 49 -122 183 -515 229 -670 11 -38 29 -99 40 -135 16 -57 36 -134 71 -285 12 -50 34 -148 55 -245 9 -41 20 -93 25 -115 14 -61 50 -300 74 -485 35 -267 51 -599 32 -657 -10 -30 -16 -29 -78 11 -77 49 -188 86 -257 86 -90 0 -88 -3 -94 205 -4 162 -7 188 -31 259 -120 357 -398 597 -763 661 -360 63 -675 -61 -900 -354 -76 -99 -133 -161 -147 -161 -5 0 -52 42 -105 93 -171 165 -368 279 -586 337 -97 26 -259 50 -337 50 -73 0 -281 -24 -351 -41 -56 -13 -82 -6 -72 19 22 55 35 204 35 407 0 402 -65 706 -221 1033 -120 252 -250 436 -439 623 -353 349 -760 525 -1261 546 -81 3 -153 9 -160 13 -14 10 -28 79 -29 150 0 62 -29 242 -55 340 -92 356 -262 653 -534 933 -192 197 -353 317 -591 439 -198 102 -372 160 -645 217 -173 35 -529 47 -710 22 -420 -57 -814 -216 -1138 -458 -124 -94 -315 -282 -424 -419 -100 -126 -166 -235 -253 -419 -38 -79 -74 -146 -79 -150 -6 -3 -57 21 -113 55 -191 113 -332 154 -528 153 -146 0 -226 -18 -362 -81 -115 -53 -182 -99 -262 -178 -132 -130 -205 -262 -275 -493 -22 -74 -45 -139 -51 -145 -7 -7 -34 13 -88 66 -90 89 -210 170 -354 237 -144 67 -225 92 -463 143 -97 21 -519 17 -620 -5 -352 -78 -587 -183 -865 -386 -118 -86 -342 -318 -438 -454 -154 -217 -272 -473 -336 -732 -46 -185 -58 -293 -63 -595 -3 -157 -9 -290 -14 -296 -6 -7 -69 -13 -167 -17 -207 -6 -345 -38 -497 -114 -185 -92 -341 -249 -453 -455 -123 -228 -148 -585 -58 -837 32 -87 23 -100 -79 -121 -274 -54 -370 -103 -523 -265 -87 -91 -102 -92 -102 -8 1 161 39 635 64 788 3 17 12 82 21 145 78 550 189 1016 340 1425 188 511 257 673 447 1055 113 228 192 375 256 480 89 147 376 586 440 675 337 467 490 652 853 1031 367 383 686 664 1109 978 157 117 649 446 770 515 41 24 95 56 120 71 106 64 522 279 685 353 66 30 146 66 178 81 32 14 60 26 63 26 3 0 20 6 37 14 103 47 444 175 597 224 187 61 677 190 800 212 25 4 92 17 150 29 423 85 630 113 1030 141 292 20 647 24 955 10z m285 -2544 c230 -40 484 -122 650 -210 279 -147 530 -353 702 -576 239 -311 407 -734 433 -1090 6 -94 -3 -141 -37 -177 -37 -39 -13 -47 84 -29 158 30 401 19 593 -27 81 -19 254 -89 348 -140 266 -145 497 -374 678 -672 145 -240 263 -546 298 -775 58 -383 36 -700 -71 -1015 -36 -106 -44 -123 -71 -152 -11 -12 -17 -29 -14 -37 12 -30 59 -16 156 44 125 76 181 101 316 136 102 27 123 29 295 29 192 0 225 -5 375 -52 281 -87 570 -316 717 -567 47 -79 82 -60 104 56 27 141 157 359 277 461 115 98 259 155 419 164 265 16 512 -92 686 -298 117 -139 169 -272 193 -491 11 -104 11 -123 -5 -179 -11 -39 -13 -66 -7 -72 5 -5 49 -11 98 -14 114 -5 160 -17 258 -66 141 -69 244 -161 264 -233 16 -56 13 -379 -4 -573 -61 -689 -156 -1174 -334 -1711 -66 -197 -182 -505 -236 -625 -8 -16 -39 -86 -70 -155 -32 -69 -68 -150 -82 -180 -60 -132 -206 -425 -267 -533 -335 -604 -673 -1085 -1112 -1582 -73 -82 -170 -189 -216 -237 l-83 -86 -1125 4 c-619 2 -1429 9 -1800 14 -371 6 -1055 14 -1520 20 -465 5 -1054 14 -1310 20 -256 5 -778 12 -1160 15 -382 2 -1014 9 -1405 15 -390 6 -1142 15 -1670 21 -1985 21 -2282 27 -2312 43 -31 16 -101 87 -184 186 -29 36 -56 67 -60 70 -24 21 -338 434 -469 615 -125 174 -430 642 -430 659 0 2 -23 43 -51 92 -50 88 -369 715 -369 727 0 3 -28 68 -61 144 -94 211 -215 536 -249 668 -4 17 -28 100 -53 185 -39 134 -75 273 -120 462 -24 103 5 76 195 -182 313 -426 705 -839 1093 -1151 455 -366 804 -607 1205 -832 266 -149 745 -382 1080 -525 372 -159 882 -320 1365 -431 99 -23 198 -46 220 -51 92 -22 201 -41 465 -80 318 -46 739 -79 1220 -95 619 -20 1590 7 1776 50 62 15 223 38 362 52 28 3 52 10 52 16 0 10 -47 7 -240 -14 -104 -11 -278 -23 -555 -39 -414 -24 -1324 16 -1810 80 -38 5 -97 12 -130 15 -33 3 -85 10 -115 15 -30 5 -98 16 -150 25 -232 38 -471 85 -665 130 -206 48 -563 139 -605 155 -14 5 -86 27 -160 50 -116 36 -374 127 -610 216 -36 14 -85 32 -110 41 -233 80 -758 325 -1115 519 -491 267 -1014 628 -1468 1012 -233 197 -492 458 -703 707 -186 220 -217 261 -429 570 -87 127 -185 268 -218 314 l-60 84 -8 111 c-4 61 -13 186 -19 279 -6 92 -15 193 -20 225 -20 119 -14 174 31 264 91 186 144 264 253 374 99 99 163 137 296 177 66 19 97 22 260 22 163 0 185 2 188 16 2 9 -22 61 -53 115 -102 182 -145 327 -145 492 0 324 172 603 467 758 247 130 495 147 787 54 51 -17 96 -30 100 -30 14 0 4 34 -28 99 -76 149 -81 179 -81 446 0 242 2 261 46 474 130 624 639 1215 1220 1417 219 76 302 89 564 89 219 -1 235 -2 340 -29 206 -53 404 -138 555 -239 69 -46 290 -258 290 -278 0 -20 48 -7 78 20 l32 30 0 124 c0 179 37 300 149 487 59 99 212 251 309 308 124 72 206 95 352 95 90 0 143 -4 190 -17 158 -43 304 -136 426 -271 66 -72 71 -76 109 -73 44 3 39 -5 95 178 96 319 310 624 615 875 312 257 717 423 1165 479 77 9 478 -3 560 -18z m-3964 -11781 c19 -15 19 -15 -2 -33 -14 -12 -55 -22 -125 -31 -154 -19 -303 -45 -659 -115 -193 -37 -376 -86 -605 -159 -77 -25 -212 -68 -300 -96 -88 -28 -212 -75 -276 -105 -150 -69 -160 -71 -195 -44 -108 83 -566 517 -561 532 3 8 132 10 458 8 457 -3 831 5 1474 33 193 9 406 17 475 18 69 2 164 4 211 5 63 1 90 -2 105 -13z m3462 -18 c38 -30 -1 -44 -174 -62 -149 -16 -405 -53 -689 -101 -82 -13 -193 -32 -245 -40 -147 -25 -403 -86 -640 -154 -19 -5 -105 -30 -190 -54 -494 -142 -1080 -366 -1565 -601 -88 -43 -208 -99 -267 -125 -58 -26 -139 -67 -180 -92 -151 -91 -358 -185 -378 -173 -29 18 6 57 185 205 114 94 192 143 382 237 62 31 110 60 107 65 -9 15 -53 9 -112 -16 -56 -23 -88 -34 -227 -76 -38 -12 -85 -31 -103 -41 -61 -35 -272 -101 -303 -95 -29 6 -82 -9 -213 -58 -77 -29 -123 -33 -151 -12 -26 18 -14 41 37 71 24 14 129 77 235 140 106 63 215 126 243 140 53 27 70 49 52 67 -18 18 -110 -10 -247 -77 -140 -68 -390 -165 -428 -165 -14 0 -40 18 -70 50 -39 41 -53 50 -81 50 -18 0 -39 -7 -46 -15 -21 -25 -45 -17 -116 38 -38 29 -94 70 -124 90 -79 51 -124 100 -116 125 7 21 103 63 311 136 55 19 165 58 245 86 285 101 327 113 665 199 271 69 409 98 625 131 74 11 178 27 230 35 281 43 763 66 1765 85 314 6 750 14 970 18 428 8 592 5 613 -11z m2187 -61 c540 -1 600 -3 603 -17 5 -28 -24 -40 -120 -50 -388 -41 -573 -61 -647 -73 -47 -8 -124 -19 -171 -26 -330 -45 -735 -133 -1175 -256 -49 -13 -132 -36 -183 -50 -646 -174 -1543 -572 -2273 -1009 -259 -155 -486 -301 -572 -368 -45 -35 -148 -107 -228 -161 -131 -87 -151 -97 -185 -94 -35 3 -39 6 -42 33 -3 27 12 44 159 186 118 114 160 161 156 173 -4 9 -17 16 -29 16 -34 0 -307 -137 -427 -213 -88 -56 -112 -67 -148 -67 -28 0 -43 4 -43 13 1 19 194 214 300 302 143 119 187 171 154 182 -6 2 -84 -44 -175 -103 -189 -122 -221 -139 -361 -194 -111 -43 -188 -53 -188 -24 0 27 145 186 250 275 39 34 52 50 44 58 -7 8 -41 -1 -122 -33 -146 -59 -160 -67 -268 -148 -114 -85 -136 -88 -145 -14 -4 37 -12 55 -33 72 -15 13 -34 24 -43 24 -9 0 -45 -19 -80 -41 -57 -37 -68 -41 -104 -35 -64 10 -234 92 -236 113 -2 18 100 90 397 277 472 297 874 480 1545 704 480 161 782 244 1127 312 427 84 623 116 908 150 52 6 133 17 180 25 177 29 331 45 520 55 287 16 362 17 725 12 182 -2 600 -5 930 -6z m2410 -69 c36 -27 17 -34 -180 -62 -22 -3 -67 -10 -100 -15 -33 -5 -94 -15 -135 -21 -73 -10 -245 -42 -515 -95 -137 -27 -569 -141 -845 -224 -340 -102 -881 -292 -1065 -375 -33 -15 -127 -56 -210 -92 -306 -133 -773 -378 -1049 -551 -472 -294 -833 -572 -1146 -881 -80 -79 -155 -150 -167 -158 -18 -12 -39 -13 -140 -3 -136 13 -153 17 -153 35 0 28 132 136 215 176 46 22 89 47 96 55 20 24 -19 29 -101 11 -41 -8 -108 -23 -149 -32 -72 -16 -135 -43 -273 -119 -36 -20 -75 -36 -86 -36 -30 0 -52 10 -52 24 0 21 232 250 295 292 72 47 78 69 20 68 -29 0 -73 -18 -160 -64 -213 -114 -381 -184 -511 -214 -84 -19 -114 -20 -114 -5 0 6 26 41 58 78 109 123 173 214 170 241 -4 32 -43 38 -90 14 -65 -33 -254 -162 -328 -222 -89 -74 -94 -74 -260 -33 -81 20 -115 33 -115 43 0 8 25 36 55 62 30 27 82 74 115 105 355 334 1028 745 1766 1079 161 73 455 198 499 212 14 5 77 27 140 50 375 137 786 255 1335 385 129 30 447 86 715 125 280 41 360 51 550 70 282 29 485 42 930 61 765 32 958 35 985 16z m930 -65 c0 -8 -26 -24 -58 -37 -32 -13 -73 -33 -90 -44 -38 -22 -147 -41 -245 -41 -38 0 -93 -4 -123 -9 -30 -6 -115 -17 -189 -26 -339 -41 -426 -55 -780 -126 -410 -82 -514 -106 -824 -189 -83 -22 -258 -81 -581 -195 -521 -183 -622 -225 -1138 -473 -332 -160 -741 -407 -1047 -631 -177 -130 -512 -407 -684 -565 l-109 -101 -116 2 c-63 2 -119 7 -124 12 -10 10 377 397 498 498 192 160 324 255 605 438 356 232 549 338 1000 552 428 204 1120 457 1665 609 54 15 241 59 315 74 25 5 110 23 190 40 627 131 834 163 1355 205 327 27 480 29 480 7z m-311 -240 c6 -10 -59 -74 -114 -114 -61 -44 -153 -86 -215 -98 -33 -6 -105 -21 -160 -34 -55 -13 -127 -29 -160 -36 -160 -33 -427 -102 -685 -175 -91 -26 -187 -53 -215 -60 -240 -65 -401 -127 -1040 -400 -196 -84 -593 -282 -775 -386 -129 -73 -597 -380 -730 -477 -41 -30 -111 -85 -155 -122 -44 -37 -111 -91 -150 -120 -38 -29 -86 -71 -106 -92 l-36 -38 -114 0 c-63 0 -208 -9 -322 -21 -241 -26 -261 -22 -191 36 23 19 102 87 176 152 471 413 1023 765 1685 1076 67 31 124 57 128 57 3 0 25 9 48 19 51 23 340 140 536 216 412 162 881 309 1201 379 256 55 457 100 535 117 50 12 164 32 255 45 91 13 196 29 234 34 38 6 80 13 94 17 23 5 204 29 249 32 12 0 24 -3 27 -7z m-389 -302 c18 -28 -101 -130 -231 -196 -45 -24 -136 -59 -201 -79 -223 -67 -424 -136 -633 -215 -41 -16 -120 -45 -175 -66 -55 -20 -163 -66 -240 -101 -183 -84 -701 -354 -885 -461 -200 -116 -443 -258 -515 -299 -55 -32 -281 -188 -381 -264 -33 -24 -56 -32 -115 -39 -41 -5 -114 -13 -164 -19 -49 -6 -112 -15 -138 -21 -66 -14 -77 -13 -77 8 0 19 99 120 180 183 25 19 77 60 115 91 94 75 420 294 520 348 44 24 106 61 137 82 314 211 1190 612 1638 750 36 11 74 23 85 28 85 37 346 112 690 200 334 85 376 92 390 70z m-466 -372 c0 -19 -175 -142 -298 -211 -58 -33 -160 -93 -226 -132 -190 -115 -320 -187 -460 -258 -71 -36 -159 -82 -195 -102 -76 -43 -381 -188 -525 -249 -55 -24 -127 -55 -160 -70 -33 -15 -96 -44 -140 -64 -44 -20 -118 -56 -164 -79 -47 -23 -87 -40 -89 -38 -8 8 18 34 57 57 20 12 54 36 76 54 59 47 270 186 393 259 59 35 145 88 192 118 251 160 783 440 935 492 51 17 377 149 490 199 86 37 115 43 114 24z"/>
</g>
</svg>